<svg xmlns="http://www.w3.org/2000/svg" width="53" height="53" viewBox="0 0 53 53">
  <g id="Grupo_24" data-name="Grupo 24" transform="translate(-243 -1347)">
    <path id="plane" d="M6.111,22.212a.9.9,0,0,0-.439,1.174l2.016,4.327a.895.895,0,0,0,1.182.439L24.1,21.038,22.72,35.462a.9.9,0,0,0,.3.753,3.91,3.91,0,0,0,2.366.9,2.88,2.88,0,0,0,.708-.089c1.236-.323,2.195-1.424,2.849-3.306L34.93,15.968,46.8,10.431C50.294,8.8,52.095,5.5,50.886,2.915A4.535,4.535,0,0,0,47.383.47a8.3,8.3,0,0,0-4.891.753l-13.7,6.423L14.066,1.885c-1.855-.7-3.324-.681-4.354.063A3.653,3.653,0,0,0,8.377,4.842a.9.9,0,0,0,.385.708l9.917,6.817L13,15.054,3.477,12.635a.9.9,0,0,0-.994.43L.109,17.338A.9.9,0,0,0,.575,18.6l7.05,2.912Zm4.1-17.818a1.533,1.533,0,0,1,.538-.968c.511-.368,1.443-.314,2.688.152L26.554,8.694l-5.985,2.8ZM2.151,17.33,3.71,14.562l9.165,2.275a.9.9,0,0,0,.592-.053L43.253,2.871a6.548,6.548,0,0,1,3.825-.609,2.806,2.806,0,0,1,2.186,1.415c.752,1.613-.726,3.969-3.226,5.133l-10.32,4.838.627-1.855a.911.911,0,1,0-1.729-.573L27.244,33.159c-.439,1.246-.986,1.989-1.595,2.15a1.516,1.516,0,0,1-1.093-.206L26.348,16.29a.9.9,0,0,0-1.792-.17L24.279,19,8.905,26.163,7.643,23.475l2.526-1.182a.9.9,0,0,0,0-1.639Zm0,0" transform="translate(244 1354.624)" fill="#fdfdfd"/>
    <rect id="Rectángulo_565" data-name="Rectángulo 565" width="53" height="53" transform="translate(243 1347)" fill="none"/>
  </g>
</svg>
