<svg xmlns="http://www.w3.org/2000/svg" width="53" height="53" viewBox="0 0 53 53">
  <g id="Grupo_23" data-name="Grupo 23" transform="translate(-243 -1451)">
    <g id="human-resources" transform="translate(244 1452)">
      <g id="Grupo_8" data-name="Grupo 8" transform="translate(12.734 0)">
        <g id="Grupo_7" data-name="Grupo 7">
          <path id="Trazado_6110" data-name="Trazado 6110" d="M148.016,27.167a3.373,3.373,0,0,0-2.547,1.173,3.351,3.351,0,0,0-5.094,0,3.328,3.328,0,0,0-4.245-.7V25c.11-.031.222-.06.331-.093.084-.025.166-.056.249-.083.256-.084.508-.174.756-.273l.2-.083q.43-.181.846-.391l.045-.023a12.715,12.715,0,0,0,3.212-2.342.879.879,0,0,0,.06-.1,12.727,12.727,0,1,0-18.166.038c.015.018.02.042.037.059.058.059.121.111.179.168.042.042.087.081.13.122q.321.3.66.581c.068.055.135.111.2.166q.341.267.7.51c.059.041.116.083.177.123.295.193.6.374.9.542.071.039.146.072.218.11.239.124.482.242.73.351.114.05.229.1.346.143.226.092.455.176.687.255.111.038.222.077.334.112s.247.073.372.107V37.853l-2.766-2.766a3.851,3.851,0,1,0-5.447,5.444l8.211,8.211v1.346a.848.848,0,0,0,.849.849h19.526a.848.848,0,0,0,.849-.849v-3.2l.76-1.519a.851.851,0,0,0,.089-.379V30.56A3.4,3.4,0,0,0,148.016,27.167Zm-24.17-7.919a11.014,11.014,0,0,1,8.343-17.536,11.012,11.012,0,0,1,9.434,17.533,9.4,9.4,0,0,0-5.08-5.685,5.093,5.093,0,1,0-7.615,0A9.4,9.4,0,0,0,123.846,19.248Zm12.284-9.06a3.383,3.383,0,0,1-1.7,2.925s-.009,0-.014.005a3.512,3.512,0,0,1-.726.312c-.045.014-.088.031-.135.042-.092.024-.184.041-.277.057a3.408,3.408,0,0,1-.469.048h-.149a3.282,3.282,0,0,1-.469-.048c-.093-.016-.185-.032-.277-.057-.046-.012-.089-.029-.135-.042a3.557,3.557,0,0,1-.726-.312l-.014-.005a3.39,3.39,0,1,1,5.091-2.925Zm-6.792,10.187v2.857a11.078,11.078,0,0,1-1.037-.4c-.1-.042-.188-.089-.283-.134q-.359-.169-.7-.363c-.109-.061-.217-.123-.323-.188-.22-.134-.434-.278-.644-.428-.093-.066-.188-.127-.278-.2q-.41-.311-.79-.661c-.025-.023-.048-.048-.073-.072a7.675,7.675,0,0,1,5.315-6.022,5.027,5.027,0,0,0,4.427,0,7.673,7.673,0,0,1,5.311,6.006c-.115.108-.227.218-.346.321l-.076.063a11.29,11.29,0,0,1-1.284.94c-.02.013-.039.027-.059.039-.163.1-.333.191-.5.284s-.318.17-.481.248c-.138.067-.278.133-.419.194-.3.127-.6.247-.907.348l-.057.021V20.376a3.4,3.4,0,0,0-6.792,0Zm20.375,24.419-.76,1.519a.851.851,0,0,0-.089.379V49.24H131.036v-.849a.845.845,0,0,0-.249-.6l-8.46-8.46a2.153,2.153,0,0,1,3.044-3.044l4.215,4.215a.849.849,0,0,0,1.449-.6V20.376a1.7,1.7,0,1,1,3.4,0V35.657h1.7V30.563a1.7,1.7,0,1,1,3.4,0v5.094h1.7V30.563a1.7,1.7,0,0,1,3.4,0v5.094h1.7V30.563a1.7,1.7,0,0,1,3.4,0Z" transform="translate(-120 -0.001)" fill="#fff"/>
        </g>
      </g>
      <g id="Grupo_10" data-name="Grupo 10" transform="translate(0 8.489)">
        <g id="Grupo_9" data-name="Grupo 9">
          <path id="Trazado_6111" data-name="Trazado 6111" d="M8.677,87.463a4.245,4.245,0,1,0-5.469,0A5.945,5.945,0,0,0,0,92.733V95.28a.848.848,0,0,0,.849.849H11.036a.848.848,0,0,0,.849-.849V92.733A5.945,5.945,0,0,0,8.677,87.463ZM5.943,81.7A2.547,2.547,0,1,1,3.4,84.244,2.55,2.55,0,0,1,5.943,81.7Zm4.245,12.734H1.7v-1.7a4.245,4.245,0,0,1,8.49,0Z" transform="translate(0 -79.999)" fill="#fff"/>
        </g>
      </g>
      <g id="Grupo_12" data-name="Grupo 12" transform="translate(39.052 7.64)">
        <g id="Grupo_11" data-name="Grupo 11">
          <path id="Trazado_6112" data-name="Trazado 6112" d="M376.677,79.463a4.245,4.245,0,1,0-5.469,0A5.945,5.945,0,0,0,368,84.733V87.28a.848.848,0,0,0,.849.849h10.187a.848.848,0,0,0,.849-.849V84.733A5.945,5.945,0,0,0,376.677,79.463ZM373.943,73.7a2.547,2.547,0,1,1-2.547,2.547A2.55,2.55,0,0,1,373.943,73.7Zm4.245,12.734H369.7v-1.7a4.245,4.245,0,1,1,8.49,0Z" transform="translate(-368 -71.999)" fill="#fff"/>
        </g>
      </g>
    </g>
    <rect id="Rectángulo_566" data-name="Rectángulo 566" width="53" height="53" transform="translate(243 1451)" fill="none"/>
  </g>
</svg>
