<svg xmlns="http://www.w3.org/2000/svg" width="53" height="53" viewBox="0 0 53 53">
  <g id="Grupo_25" data-name="Grupo 25" transform="translate(-242 -1243)">
    <g id="icon-recoge-tienda" transform="translate(242.414 1243.414)">
      <rect id="Rectángulo_554" data-name="Rectángulo 554" width="53" height="53" transform="translate(-0.414 -0.414)" fill="none"/>
      <path id="Trazado_6011" data-name="Trazado 6011" d="M938.206,436.217H916.191a.759.759,0,0,1-.759-.759V413.767a.759.759,0,0,1,1.519-.008h0V434.7h21.255a.759.759,0,0,1,0,1.519Z" transform="translate(-909.745 -395.499)" fill="#fff"/>
      <path id="Trazado_6108" data-name="Trazado 6108" d="M963.656,413.76l-6.069-9.862a.764.764,0,0,0-.653-.362H937.938a.752.752,0,0,0-.425,0H919a.763.763,0,0,0-.645.362l-6.069,9.862a.779.779,0,0,0-.113.4.76.76,0,0,0,.766.753h44.051a.753.753,0,0,0-.051.309V440.71h-1.112a.76.76,0,0,0,.081,1.517h1.788l0,0a.757.757,0,0,0,.758-.758V415.143a.776.776,0,0,0-.059-.227h4.611a.724.724,0,0,0,.405-.113A.76.76,0,0,0,963.656,413.76ZM914.3,413.4l5.142-8.344h6.66l-5.449,8.344Zm8.168,0,5.449-8.344H935.2l-5.446,8.344Zm9.1,0,5.449-8.344h.341L942.8,413.4Zm13.051,0-5.451-8.344h8.809l5.447,8.344Zm10.62,0-5.449-8.344h6.726l5.135,8.344Z" transform="translate(-911.81 -401.511)" fill="#fff"/>
      <path id="Trazado_6025" data-name="Trazado 6025" d="M933.857,430.779a.759.759,0,0,1-.759-.759v-12.9H920.2v12.9a.759.759,0,0,1-1.515,0v-13.66a.758.758,0,0,1,.753-.759h14.42a.76.76,0,0,1,.759.754v13.66a.757.757,0,0,1-.754.759Z" transform="translate(-907.688 -393.856)" fill="#fff"/>
      <path id="Unión_5" data-name="Unión 5" d="M2.655,10.09a1.419,1.419,0,0,1,.372-.959H2.655a.759.759,0,0,1-.729-.553L.028,1.939A.762.762,0,0,1,.554,1a.778.778,0,0,1,.2-.027h9.283L11.794.1a.758.758,0,1,1,.735,1.327l-.063.03-1.511.759-.9,6.267A.75.75,0,0,1,9.706,9a1.4,1.4,0,0,1,.537,1.088A1.424,1.424,0,1,1,7.781,9.13H5.13a1.412,1.412,0,0,1,.373.959,1.424,1.424,0,1,1-2.848,0Zm.571-2.475h5.41l.732-5.123h-7.6Z" transform="translate(30.714 30.078)" fill="#fff"/>
      <path id="Trazado_6033" data-name="Trazado 6033" d="M940.419,431.06H922.213a.759.759,0,0,1,0-1.517h18.206a.759.759,0,0,1,0,1.519Z" transform="translate(-905.912 -385.032)" fill="#fff"/>
      <path id="Trazado_6035" data-name="Trazado 6035" d="M946.755,433.849h-27.31a.759.759,0,0,1,0-1.519h27.31a.759.759,0,0,1,0,1.519Z" transform="translate(-907.683 -383.268)" fill="#fff"/>
    </g>
    <rect id="Rectángulo_564" data-name="Rectángulo 564" width="53" height="53" transform="translate(242 1243)" fill="none"/>
  </g>
</svg>
